<svg xmlns="http://www.w3.org/2000/svg" viewBox="0 0 930 194" style="enable-background:new 0 0 930 194" xml:space="preserve"><path d="M158.01 25.04h101.62v23.03h-75.21v33.59h50.07v23.03h-50.07v37.61h77.54v23.03H158.01V25.04z"/><path d="M254.64 65.6h27.04l23.66 69.51 21.97-69.51h26.2l-36.34 99.72h-24.3L254.64 65.6zM349.37 115.67c0-30.42 21.13-51.97 51.34-51.97 30 0 51.13 21.55 51.13 51.97 0 30-21.55 51.55-51.76 51.55-30.01 0-50.71-21.13-50.71-51.55zm75.84.63v-.84c0-19.01-9.3-30.42-24.51-30.42-15.42 0-24.72 11.41-24.72 30.42v.84c0 18.59 9.08 29.58 24.3 29.58 15.42 0 24.93-10.98 24.93-29.58zM463.74 23.14h26.41v142.18h-26.41V23.14zM505.22 125.39V65.6h26.2v58.31c0 13.31 6.34 21.13 18.17 21.13 13.73 0 19.44-11.62 19.44-28.73v-50.7h26.2v99.72h-26.2v-14.15c-5.28 10.35-14.37 16.06-27.25 16.06-22.62-.02-36.56-16.08-36.56-41.85zM619.17 138.91V86.73h-14.16V65.6h14.16V46.8l25.56-14.37V65.6h19.65v21.13h-19.86v49.65c0 4.86 2.32 6.97 7.18 7.18h11.62v21.76h-20.28c-19.23-1.06-23.45-9.93-23.87-26.41zM676.28 25.46h27.25v25.56h-27.25V25.46zm.43 40.14h26.41v99.72h-26.41V65.6zM715.02 115.67c0-30.42 21.13-51.97 51.34-51.97 30 0 51.13 21.55 51.13 51.97 0 30-21.55 51.55-51.76 51.55-30 0-50.71-21.13-50.71-51.55zm75.85.63v-.84c0-19.01-9.3-30.42-24.51-30.42-15.42 0-24.72 11.41-24.72 30.42v.84c0 18.59 9.08 29.58 24.29 29.58 15.43 0 24.94-10.98 24.94-29.58zM829.18 65.6h26.2v16.27c5.28-11.62 15-18.38 29.16-18.38 21.76 0 34.65 14.58 34.65 42.04v59.79h-26.2v-58.31c0-13.94-5.28-21.13-17.53-21.13-12.47 0-20.07 10.14-20.07 28.73v50.7h-26.2l-.01-99.71zM120.78 183.71c-4.5 0-8.14-3.65-8.14-8.15.01-4.51 3.65-8.15 8.14-8.15 4.51 0 8.14 3.64 8.15 8.15-.01 4.5-3.65 8.15-8.15 8.15m0-18.39c-5.64 0-10.22 4.59-10.22 10.24s4.58 10.23 10.22 10.23c5.65 0 10.23-4.58 10.23-10.23s-4.58-10.24-10.23-10.24"/><g><path d="M104.08 90.3c8.14.26 17.07.04 26.93-.74-1.42-19.85-7.88-36.34-17.56-49.12.46 3.5.72 7.06.72 10.69 0 14.21-3.67 27.56-10.09 39.17zM100.67 95.93c-14.52 21.86-39.35 36.27-67.56 36.27-2.01 0-4-.1-5.97-.24-7.2 11.04-11.85 23.3-16.98 34.83 50.6 27.02 115.94-1.47 120.85-70.26-11.26-.89-21.31-1.05-30.34-.6z"/><radialGradient id="a" cx="836.643" cy="171.552" r="69.002" fx="767.795" fy="176.168" gradientTransform="matrix(-.8331 -.5531 -.4978 .7498 844.566 383.882)" gradientUnits="userSpaceOnUse"><stop offset=".17" style="stop-color:#ececec"/><stop offset=".215" style="stop-color:#d6d6d6"/><stop offset=".354" style="stop-color:#969696"/><stop offset=".487" style="stop-color:#606060"/><stop offset=".611" style="stop-color:#373737"/><stop offset=".722" style="stop-color:#191919"/><stop offset=".817" style="stop-color:#060606"/><stop offset=".885" style="stop-color:#000"/></radialGradient><path d="M10.16 19.31c14.07 31.66 24.61 68.82 93.92 70.99 6.42-11.61 10.09-24.96 10.09-39.17 0-3.63-.26-7.19-.72-10.69C89.59 8.97 46.15.09 10.16 19.31z" style="fill:url(#a)"/><radialGradient id="b" cx="717.901" cy="86.956" r="29.011" fx="701.987" fy="87.293" gradientTransform="matrix(-.4226 -.9063 -2.3873 1.1132 574.925 667.877)" gradientUnits="userSpaceOnUse"><stop offset=".116" style="stop-color:#ececec"/><stop offset=".169" style="stop-color:#e1e1e1"/><stop offset=".265" style="stop-color:#c2c2c2"/><stop offset=".392" style="stop-color:#909090"/><stop offset=".545" style="stop-color:#4c4c4c"/><stop offset=".699" style="stop-color:#000"/></radialGradient><path d="M100.67 95.93c-41.71 2.06-61.3 17.27-73.53 36.03 1.97.14 3.96.24 5.97.24 28.21 0 53.04-14.42 67.56-36.27z" style="fill:url(#b)"/></g><g><path d="M116.87 173.9h-1.53v-1.01h4.34v1.01h-1.52v4.33h-1.29v-4.33zM120.22 172.88h2.04l.98 3.41 1.02-3.41h1.99v5.34h-1.27v-4.31l-1.35 4.31h-1.01l-1.3-4.29v4.29h-1.1v-5.34z"/></g></svg>